<mxfile host="Electron" modified="2021-09-06T11:37:14.076Z" agent="5.0 (X11; Linux x86_64) AppleWebKit/537.36 (KHTML, like Gecko) draw.io/14.6.13 Chrome/91.0.4472.164 Electron/13.2.3 Safari/537.36" etag="FlyzPFqJQ9lhervvZ1V2" compressed="false" version="14.6.13" type="device">
  <diagram id="aPd1HjSMVd5em0_f4fsR" name="Страница 1">
    <mxGraphModel dx="982" dy="556" grid="1" gridSize="10" guides="1" tooltips="1" connect="1" arrows="1" fold="1" page="1" pageScale="1" pageWidth="1600" pageHeight="900" background="none" math="0" shadow="0">
      <root>
        <mxCell id="0" />
        <mxCell id="1" parent="0" />
        <mxCell id="eFoZafhcH6ko-tXm_hz1-48" value="Сегмент сети 2" style="rounded=0;whiteSpace=wrap;html=1;sketch=1;fontFamily=Comic Relief;verticalAlign=top;fillColor=#f5f5f5;strokeColor=#666666;fontColor=#333333;align=right;" parent="1" vertex="1">
          <mxGeometry x="850" y="341" width="320" height="299" as="geometry" />
        </mxCell>
        <mxCell id="eFoZafhcH6ko-tXm_hz1-106" style="edgeStyle=orthogonalEdgeStyle;curved=1;rounded=0;sketch=1;orthogonalLoop=1;jettySize=auto;html=1;entryX=1.01;entryY=0.592;entryDx=0;entryDy=0;entryPerimeter=0;fontFamily=Comic Relief;exitX=0;exitY=0.5;exitDx=0;exitDy=0;" parent="1" source="HmvSd15M-8F5yOJkMYdE-20" target="eFoZafhcH6ko-tXm_hz1-3" edge="1">
          <mxGeometry relative="1" as="geometry">
            <Array as="points">
              <mxPoint x="820" y="399" />
              <mxPoint x="820" y="425" />
            </Array>
          </mxGeometry>
        </mxCell>
        <mxCell id="eFoZafhcH6ko-tXm_hz1-95" value="Сегмент сети 1" style="rounded=0;whiteSpace=wrap;html=1;sketch=1;fontFamily=Comic Relief;verticalAlign=top;fillColor=#f5f5f5;strokeColor=#666666;fontColor=#333333;align=left;" parent="1" vertex="1">
          <mxGeometry x="290" y="401" width="233.75" height="268" as="geometry" />
        </mxCell>
        <mxCell id="HmvSd15M-8F5yOJkMYdE-38" value="" style="group;rounded=1;" parent="1" vertex="1" connectable="0">
          <mxGeometry x="410" y="341" width="120" height="30" as="geometry" />
        </mxCell>
        <mxCell id="HmvSd15M-8F5yOJkMYdE-21" value="Синдик 1" style="rounded=1;whiteSpace=wrap;html=1;sketch=1;fontFamily=Comic Relief;" parent="HmvSd15M-8F5yOJkMYdE-38" vertex="1">
          <mxGeometry width="120" height="30" as="geometry" />
        </mxCell>
        <mxCell id="HmvSd15M-8F5yOJkMYdE-25" value="" style="rounded=1;whiteSpace=wrap;html=1;sketch=1;fontFamily=Comic Relief;fillStyle=solid;fillColor=#67AB9F;" parent="HmvSd15M-8F5yOJkMYdE-38" vertex="1">
          <mxGeometry x="10" y="10" width="10" height="10" as="geometry" />
        </mxCell>
        <mxCell id="HmvSd15M-8F5yOJkMYdE-39" value="" style="group;rounded=1;" parent="1" vertex="1" connectable="0">
          <mxGeometry x="960" y="438" width="120" height="45" as="geometry" />
        </mxCell>
        <mxCell id="HmvSd15M-8F5yOJkMYdE-29" value="" style="rounded=1;whiteSpace=wrap;html=1;sketch=1;fontFamily=Comic Relief;fillStyle=solid;fillColor=#67AB9F;" parent="HmvSd15M-8F5yOJkMYdE-39" vertex="1">
          <mxGeometry x="30" y="-34" width="10" height="10" as="geometry" />
        </mxCell>
        <mxCell id="eFoZafhcH6ko-tXm_hz1-5" value="F9F9FB" style="group;rounded=1;" parent="1" vertex="1" connectable="0">
          <mxGeometry x="890" y="541" width="120" height="30" as="geometry" />
        </mxCell>
        <mxCell id="eFoZafhcH6ko-tXm_hz1-6" value="Миньон" style="rounded=1;whiteSpace=wrap;html=1;sketch=1;fontFamily=Comic Relief;" parent="eFoZafhcH6ko-tXm_hz1-5" vertex="1">
          <mxGeometry width="120" height="30" as="geometry" />
        </mxCell>
        <mxCell id="eFoZafhcH6ko-tXm_hz1-7" value="" style="rounded=1;whiteSpace=wrap;html=1;sketch=1;fontFamily=Comic Relief;fillStyle=solid;fillColor=#67AB9F;" parent="eFoZafhcH6ko-tXm_hz1-5" vertex="1">
          <mxGeometry x="10" y="12" width="10" height="10" as="geometry" />
        </mxCell>
        <mxCell id="eFoZafhcH6ko-tXm_hz1-8" value="F9F9FB" style="group;rounded=1;" parent="1" vertex="1" connectable="0">
          <mxGeometry x="1000" y="501" width="120" height="30" as="geometry" />
        </mxCell>
        <mxCell id="eFoZafhcH6ko-tXm_hz1-9" value="Миньон" style="rounded=1;whiteSpace=wrap;html=1;sketch=1;fontFamily=Comic Relief;" parent="eFoZafhcH6ko-tXm_hz1-8" vertex="1">
          <mxGeometry width="120" height="30" as="geometry" />
        </mxCell>
        <mxCell id="eFoZafhcH6ko-tXm_hz1-10" value="" style="rounded=1;whiteSpace=wrap;html=1;sketch=1;fontFamily=Comic Relief;fillStyle=solid;fillColor=#67AB9F;" parent="eFoZafhcH6ko-tXm_hz1-8" vertex="1">
          <mxGeometry x="10" y="12" width="10" height="10" as="geometry" />
        </mxCell>
        <mxCell id="eFoZafhcH6ko-tXm_hz1-11" value="F9F9FB" style="group;rounded=1;" parent="1" vertex="1" connectable="0">
          <mxGeometry x="870" y="501" width="120" height="30" as="geometry" />
        </mxCell>
        <mxCell id="eFoZafhcH6ko-tXm_hz1-12" value="Миньон" style="rounded=1;whiteSpace=wrap;html=1;sketch=1;fontFamily=Comic Relief;" parent="eFoZafhcH6ko-tXm_hz1-11" vertex="1">
          <mxGeometry width="120" height="30" as="geometry" />
        </mxCell>
        <mxCell id="eFoZafhcH6ko-tXm_hz1-13" value="" style="rounded=1;whiteSpace=wrap;html=1;sketch=1;fontFamily=Comic Relief;fillStyle=solid;fillColor=#67AB9F;" parent="eFoZafhcH6ko-tXm_hz1-11" vertex="1">
          <mxGeometry x="10" y="12" width="10" height="10" as="geometry" />
        </mxCell>
        <mxCell id="eFoZafhcH6ko-tXm_hz1-14" value="F9F9FB" style="group;rounded=1;" parent="1" vertex="1" connectable="0">
          <mxGeometry x="1020" y="544" width="120" height="30" as="geometry" />
        </mxCell>
        <mxCell id="eFoZafhcH6ko-tXm_hz1-15" value="Миньон" style="rounded=1;whiteSpace=wrap;html=1;sketch=1;fontFamily=Comic Relief;" parent="eFoZafhcH6ko-tXm_hz1-14" vertex="1">
          <mxGeometry width="120" height="30" as="geometry" />
        </mxCell>
        <mxCell id="eFoZafhcH6ko-tXm_hz1-16" value="" style="rounded=1;whiteSpace=wrap;html=1;sketch=1;fontFamily=Comic Relief;fillStyle=solid;fillColor=#67AB9F;" parent="eFoZafhcH6ko-tXm_hz1-14" vertex="1">
          <mxGeometry x="10" y="12" width="10" height="10" as="geometry" />
        </mxCell>
        <mxCell id="eFoZafhcH6ko-tXm_hz1-17" value="F9F9FB" style="group;rounded=1;" parent="1" vertex="1" connectable="0">
          <mxGeometry x="1000" y="585" width="120" height="30" as="geometry" />
        </mxCell>
        <mxCell id="eFoZafhcH6ko-tXm_hz1-18" value="Миньон" style="rounded=1;whiteSpace=wrap;html=1;sketch=1;fontFamily=Comic Relief;" parent="eFoZafhcH6ko-tXm_hz1-17" vertex="1">
          <mxGeometry width="120" height="30" as="geometry" />
        </mxCell>
        <mxCell id="eFoZafhcH6ko-tXm_hz1-19" value="" style="rounded=1;whiteSpace=wrap;html=1;sketch=1;fontFamily=Comic Relief;fillStyle=solid;fillColor=#67AB9F;" parent="eFoZafhcH6ko-tXm_hz1-17" vertex="1">
          <mxGeometry x="10" y="12" width="10" height="10" as="geometry" />
        </mxCell>
        <mxCell id="eFoZafhcH6ko-tXm_hz1-26" value="" style="group;rounded=1;" parent="1" vertex="1" connectable="0">
          <mxGeometry x="870" y="581" width="120" height="30" as="geometry" />
        </mxCell>
        <mxCell id="eFoZafhcH6ko-tXm_hz1-27" value="Миньон" style="rounded=1;whiteSpace=wrap;html=1;sketch=1;fontFamily=Comic Relief;" parent="eFoZafhcH6ko-tXm_hz1-26" vertex="1">
          <mxGeometry width="120" height="30" as="geometry" />
        </mxCell>
        <mxCell id="eFoZafhcH6ko-tXm_hz1-28" value="" style="rounded=1;whiteSpace=wrap;html=1;sketch=1;fontFamily=Comic Relief;fillStyle=solid;fillColor=#B3B3B3;" parent="eFoZafhcH6ko-tXm_hz1-26" vertex="1">
          <mxGeometry x="10" y="10" width="10" height="10" as="geometry" />
        </mxCell>
        <mxCell id="eFoZafhcH6ko-tXm_hz1-29" value="F9F9FB" style="group;rounded=1;" parent="1" vertex="1" connectable="0">
          <mxGeometry x="560" y="562" width="120" height="30" as="geometry" />
        </mxCell>
        <mxCell id="eFoZafhcH6ko-tXm_hz1-30" value="Миньон" style="rounded=1;whiteSpace=wrap;html=1;sketch=1;fontFamily=Comic Relief;" parent="eFoZafhcH6ko-tXm_hz1-29" vertex="1">
          <mxGeometry width="120" height="30" as="geometry" />
        </mxCell>
        <mxCell id="eFoZafhcH6ko-tXm_hz1-31" value="" style="rounded=1;whiteSpace=wrap;html=1;sketch=1;fontFamily=Comic Relief;fillStyle=solid;fillColor=#67AB9F;" parent="eFoZafhcH6ko-tXm_hz1-29" vertex="1">
          <mxGeometry x="10" y="12" width="10" height="10" as="geometry" />
        </mxCell>
        <mxCell id="eFoZafhcH6ko-tXm_hz1-32" value="F9F9FB" style="group;rounded=1;" parent="1" vertex="1" connectable="0">
          <mxGeometry x="690" y="560" width="120" height="30" as="geometry" />
        </mxCell>
        <mxCell id="eFoZafhcH6ko-tXm_hz1-33" value="Миньон" style="rounded=1;whiteSpace=wrap;html=1;sketch=1;fontFamily=Comic Relief;" parent="eFoZafhcH6ko-tXm_hz1-32" vertex="1">
          <mxGeometry width="120" height="30" as="geometry" />
        </mxCell>
        <mxCell id="eFoZafhcH6ko-tXm_hz1-34" value="" style="rounded=1;whiteSpace=wrap;html=1;sketch=1;fontFamily=Comic Relief;fillStyle=solid;fillColor=#EA6B66;" parent="eFoZafhcH6ko-tXm_hz1-32" vertex="1">
          <mxGeometry x="10" y="12" width="10" height="10" as="geometry" />
        </mxCell>
        <mxCell id="eFoZafhcH6ko-tXm_hz1-35" value="F9F9FB" style="group;rounded=1;" parent="1" vertex="1" connectable="0">
          <mxGeometry x="570" y="640" width="120" height="30" as="geometry" />
        </mxCell>
        <mxCell id="eFoZafhcH6ko-tXm_hz1-36" value="Миньон" style="rounded=1;whiteSpace=wrap;html=1;sketch=1;fontFamily=Comic Relief;" parent="eFoZafhcH6ko-tXm_hz1-35" vertex="1">
          <mxGeometry width="120" height="30" as="geometry" />
        </mxCell>
        <mxCell id="eFoZafhcH6ko-tXm_hz1-37" value="" style="rounded=1;whiteSpace=wrap;html=1;sketch=1;fontFamily=Comic Relief;fillStyle=solid;fillColor=#67AB9F;" parent="eFoZafhcH6ko-tXm_hz1-35" vertex="1">
          <mxGeometry x="10" y="12" width="10" height="10" as="geometry" />
        </mxCell>
        <mxCell id="eFoZafhcH6ko-tXm_hz1-38" value="F9F9FB" style="group;rounded=1;" parent="1" vertex="1" connectable="0">
          <mxGeometry x="710" y="640" width="120" height="30" as="geometry" />
        </mxCell>
        <mxCell id="eFoZafhcH6ko-tXm_hz1-39" value="Миньон" style="rounded=1;whiteSpace=wrap;html=1;sketch=1;fontFamily=Comic Relief;" parent="eFoZafhcH6ko-tXm_hz1-38" vertex="1">
          <mxGeometry width="120" height="30" as="geometry" />
        </mxCell>
        <mxCell id="eFoZafhcH6ko-tXm_hz1-40" value="" style="rounded=1;whiteSpace=wrap;html=1;sketch=1;fontFamily=Comic Relief;fillStyle=solid;fillColor=#67AB9F;" parent="eFoZafhcH6ko-tXm_hz1-38" vertex="1">
          <mxGeometry x="10" y="12" width="10" height="10" as="geometry" />
        </mxCell>
        <mxCell id="eFoZafhcH6ko-tXm_hz1-44" value="" style="group;rounded=1;" parent="1" vertex="1" connectable="0">
          <mxGeometry x="650" y="600" width="120" height="30" as="geometry" />
        </mxCell>
        <mxCell id="eFoZafhcH6ko-tXm_hz1-45" value="Миньон" style="rounded=1;whiteSpace=wrap;html=1;sketch=1;fontFamily=Comic Relief;" parent="eFoZafhcH6ko-tXm_hz1-44" vertex="1">
          <mxGeometry width="120" height="30" as="geometry" />
        </mxCell>
        <mxCell id="eFoZafhcH6ko-tXm_hz1-46" value="" style="rounded=1;whiteSpace=wrap;html=1;sketch=1;fontFamily=Comic Relief;fillStyle=solid;fillColor=#B3B3B3;" parent="eFoZafhcH6ko-tXm_hz1-44" vertex="1">
          <mxGeometry x="10" y="10" width="10" height="10" as="geometry" />
        </mxCell>
        <mxCell id="eFoZafhcH6ko-tXm_hz1-47" value="" style="group" parent="1" vertex="1" connectable="0">
          <mxGeometry x="600" y="330" width="172.5" height="175" as="geometry" />
        </mxCell>
        <mxCell id="eFoZafhcH6ko-tXm_hz1-3" value="Мультимастер" style="rounded=0;whiteSpace=wrap;html=1;sketch=1;fontFamily=Comic Relief;verticalAlign=top;fillColor=#dae8fc;strokeColor=#6c8ebf;" parent="eFoZafhcH6ko-tXm_hz1-47" vertex="1">
          <mxGeometry width="165" height="160" as="geometry" />
        </mxCell>
        <mxCell id="HmvSd15M-8F5yOJkMYdE-42" value="" style="group;rounded=1;" parent="eFoZafhcH6ko-tXm_hz1-47" vertex="1" connectable="0">
          <mxGeometry x="22.5" y="120" width="120" height="30" as="geometry" />
        </mxCell>
        <mxCell id="HmvSd15M-8F5yOJkMYdE-5" value="Мастер 3" style="rounded=1;whiteSpace=wrap;html=1;sketch=1;fontFamily=Comic Relief;" parent="HmvSd15M-8F5yOJkMYdE-42" vertex="1">
          <mxGeometry width="120" height="30" as="geometry" />
        </mxCell>
        <mxCell id="HmvSd15M-8F5yOJkMYdE-28" value="" style="rounded=1;whiteSpace=wrap;html=1;sketch=1;fontFamily=Comic Relief;fillStyle=solid;fillColor=#67AB9F;" parent="HmvSd15M-8F5yOJkMYdE-42" vertex="1">
          <mxGeometry x="10" y="10" width="10" height="10" as="geometry" />
        </mxCell>
        <mxCell id="HmvSd15M-8F5yOJkMYdE-4" value="Мастер 2" style="rounded=1;whiteSpace=wrap;html=1;sketch=1;fontFamily=Comic Relief;" parent="eFoZafhcH6ko-tXm_hz1-47" vertex="1">
          <mxGeometry x="22.5" y="80" width="120" height="30" as="geometry" />
        </mxCell>
        <mxCell id="HmvSd15M-8F5yOJkMYdE-27" value="" style="rounded=1;whiteSpace=wrap;html=1;sketch=1;fontFamily=Comic Relief;strokeColor=#36393d;fillStyle=solid;fillColor=#EA6B66;" parent="eFoZafhcH6ko-tXm_hz1-47" vertex="1">
          <mxGeometry x="32.5" y="90" width="10" height="10" as="geometry" />
        </mxCell>
        <mxCell id="HmvSd15M-8F5yOJkMYdE-40" value="" style="group;rounded=1;" parent="eFoZafhcH6ko-tXm_hz1-47" vertex="1" connectable="0">
          <mxGeometry x="22.5" y="15" width="150" height="160" as="geometry" />
        </mxCell>
        <mxCell id="HmvSd15M-8F5yOJkMYdE-3" value="Мастер 1" style="rounded=1;whiteSpace=wrap;html=1;sketch=1;fontFamily=Comic Relief;" parent="HmvSd15M-8F5yOJkMYdE-40" vertex="1">
          <mxGeometry y="20" width="120" height="30" as="geometry" />
        </mxCell>
        <mxCell id="HmvSd15M-8F5yOJkMYdE-26" value="" style="rounded=1;whiteSpace=wrap;html=1;sketch=1;fontFamily=Comic Relief;fillStyle=solid;fillColor=#67AB9F;" parent="HmvSd15M-8F5yOJkMYdE-40" vertex="1">
          <mxGeometry x="10" y="30" width="10" height="10" as="geometry" />
        </mxCell>
        <mxCell id="eFoZafhcH6ko-tXm_hz1-64" value="" style="group" parent="1" vertex="1" connectable="0">
          <mxGeometry x="860" y="351" width="80" height="80" as="geometry" />
        </mxCell>
        <mxCell id="eFoZafhcH6ko-tXm_hz1-63" value="" style="rounded=0;whiteSpace=wrap;html=1;sketch=1;fontFamily=Comic Relief;fillStyle=solid;strokeColor=none;" parent="eFoZafhcH6ko-tXm_hz1-64" vertex="1">
          <mxGeometry width="80" height="80" as="geometry" />
        </mxCell>
        <mxCell id="HmvSd15M-8F5yOJkMYdE-45" value="" style="rounded=0;whiteSpace=wrap;html=1;sketch=1;fontFamily=Comic Relief;fillStyle=hachure;fillColor=#EA6B66;" parent="eFoZafhcH6ko-tXm_hz1-64" vertex="1">
          <mxGeometry width="20" height="20" as="geometry" />
        </mxCell>
        <mxCell id="HmvSd15M-8F5yOJkMYdE-46" value="" style="rounded=0;whiteSpace=wrap;html=1;sketch=1;fontFamily=Comic Relief;fillStyle=hachure;fillColor=#EA6B66;" parent="eFoZafhcH6ko-tXm_hz1-64" vertex="1">
          <mxGeometry x="20" width="40" height="20" as="geometry" />
        </mxCell>
        <mxCell id="HmvSd15M-8F5yOJkMYdE-47" value="" style="rounded=0;whiteSpace=wrap;html=1;sketch=1;fontFamily=Comic Relief;fillStyle=hachure;fillColor=#EA6B66;" parent="eFoZafhcH6ko-tXm_hz1-64" vertex="1">
          <mxGeometry y="20" width="40" height="20" as="geometry" />
        </mxCell>
        <mxCell id="HmvSd15M-8F5yOJkMYdE-48" value="" style="rounded=0;whiteSpace=wrap;html=1;sketch=1;fontFamily=Comic Relief;fillStyle=hachure;fillColor=#EA6B66;" parent="eFoZafhcH6ko-tXm_hz1-64" vertex="1">
          <mxGeometry y="40" width="20" height="20" as="geometry" />
        </mxCell>
        <mxCell id="HmvSd15M-8F5yOJkMYdE-49" value="" style="rounded=0;whiteSpace=wrap;html=1;sketch=1;fontFamily=Comic Relief;fillStyle=hachure;fillColor=#EA6B66;" parent="eFoZafhcH6ko-tXm_hz1-64" vertex="1">
          <mxGeometry x="20" y="40" width="40" height="20" as="geometry" />
        </mxCell>
        <mxCell id="HmvSd15M-8F5yOJkMYdE-50" value="" style="rounded=0;whiteSpace=wrap;html=1;sketch=1;fontFamily=Comic Relief;fillStyle=hachure;fillColor=#EA6B66;" parent="eFoZafhcH6ko-tXm_hz1-64" vertex="1">
          <mxGeometry x="40" y="20" width="40" height="20" as="geometry" />
        </mxCell>
        <mxCell id="HmvSd15M-8F5yOJkMYdE-51" value="" style="rounded=0;whiteSpace=wrap;html=1;sketch=1;fontFamily=Comic Relief;fillStyle=hachure;fillColor=#EA6B66;" parent="eFoZafhcH6ko-tXm_hz1-64" vertex="1">
          <mxGeometry y="60" width="40" height="20" as="geometry" />
        </mxCell>
        <mxCell id="HmvSd15M-8F5yOJkMYdE-52" value="" style="rounded=0;whiteSpace=wrap;html=1;sketch=1;fontFamily=Comic Relief;fillStyle=hachure;fillColor=#EA6B66;" parent="eFoZafhcH6ko-tXm_hz1-64" vertex="1">
          <mxGeometry x="40" y="60" width="40" height="20" as="geometry" />
        </mxCell>
        <mxCell id="HmvSd15M-8F5yOJkMYdE-53" value="" style="rounded=0;whiteSpace=wrap;html=1;sketch=1;fontFamily=Comic Relief;fillStyle=hachure;fillColor=#EA6B66;" parent="eFoZafhcH6ko-tXm_hz1-64" vertex="1">
          <mxGeometry x="60" width="20" height="20" as="geometry" />
        </mxCell>
        <mxCell id="HmvSd15M-8F5yOJkMYdE-54" value="" style="rounded=0;whiteSpace=wrap;html=1;sketch=1;fontFamily=Comic Relief;fillStyle=hachure;fillColor=#EA6B66;" parent="eFoZafhcH6ko-tXm_hz1-64" vertex="1">
          <mxGeometry x="60" y="40" width="20" height="20" as="geometry" />
        </mxCell>
        <mxCell id="eFoZafhcH6ko-tXm_hz1-66" value="NAT" style="rounded=0;whiteSpace=wrap;html=1;sketch=1;fontFamily=Comic Relief;fillStyle=solid;fillColor=#f9f7ed;strokeColor=#36393d;" parent="eFoZafhcH6ko-tXm_hz1-64" vertex="1">
          <mxGeometry x="15" y="25" width="50" height="30" as="geometry" />
        </mxCell>
        <mxCell id="HmvSd15M-8F5yOJkMYdE-20" value="Синдик 2" style="rounded=1;whiteSpace=wrap;html=1;sketch=1;fontFamily=Comic Relief;" parent="1" vertex="1">
          <mxGeometry x="990" y="384" width="120" height="30" as="geometry" />
        </mxCell>
        <mxCell id="eFoZafhcH6ko-tXm_hz1-93" style="edgeStyle=orthogonalEdgeStyle;curved=1;rounded=0;sketch=1;orthogonalLoop=1;jettySize=auto;html=1;fontFamily=Comic Relief;entryX=0.592;entryY=1;entryDx=0;entryDy=0;entryPerimeter=0;exitX=0.851;exitY=-0.048;exitDx=0;exitDy=0;exitPerimeter=0;" parent="1" source="HmvSd15M-8F5yOJkMYdE-12" target="HmvSd15M-8F5yOJkMYdE-21" edge="1">
          <mxGeometry relative="1" as="geometry">
            <mxPoint x="386" y="351" as="targetPoint" />
          </mxGeometry>
        </mxCell>
        <mxCell id="HmvSd15M-8F5yOJkMYdE-34" value="F9F9FB" style="group;rounded=1;" parent="1" vertex="1" connectable="0">
          <mxGeometry x="400" y="552" width="120" height="30" as="geometry" />
        </mxCell>
        <mxCell id="HmvSd15M-8F5yOJkMYdE-12" value="Миньон" style="rounded=1;whiteSpace=wrap;html=1;sketch=1;fontFamily=Comic Relief;" parent="HmvSd15M-8F5yOJkMYdE-34" vertex="1">
          <mxGeometry width="120" height="30" as="geometry" />
        </mxCell>
        <mxCell id="HmvSd15M-8F5yOJkMYdE-31" value="" style="rounded=1;whiteSpace=wrap;html=1;sketch=1;fontFamily=Comic Relief;fillStyle=solid;fillColor=#67AB9F;" parent="HmvSd15M-8F5yOJkMYdE-34" vertex="1">
          <mxGeometry x="10" y="12" width="10" height="10" as="geometry" />
        </mxCell>
        <mxCell id="HmvSd15M-8F5yOJkMYdE-35" value="" style="group;rounded=1;" parent="1" vertex="1" connectable="0">
          <mxGeometry x="340" y="509" width="120" height="30" as="geometry" />
        </mxCell>
        <mxCell id="HmvSd15M-8F5yOJkMYdE-6" value="Миньон" style="rounded=1;whiteSpace=wrap;html=1;sketch=1;fontFamily=Comic Relief;" parent="HmvSd15M-8F5yOJkMYdE-35" vertex="1">
          <mxGeometry width="120" height="30" as="geometry" />
        </mxCell>
        <mxCell id="HmvSd15M-8F5yOJkMYdE-30" value="" style="rounded=1;whiteSpace=wrap;html=1;sketch=1;fontFamily=Comic Relief;fillStyle=solid;fillColor=#67AB9F;" parent="HmvSd15M-8F5yOJkMYdE-35" vertex="1">
          <mxGeometry x="10" y="10" width="10" height="10" as="geometry" />
        </mxCell>
        <mxCell id="HmvSd15M-8F5yOJkMYdE-36" value="" style="group;rounded=1;" parent="1" vertex="1" connectable="0">
          <mxGeometry x="380" y="630" width="120" height="30" as="geometry" />
        </mxCell>
        <mxCell id="HmvSd15M-8F5yOJkMYdE-16" value="Миньон" style="rounded=1;whiteSpace=wrap;html=1;sketch=1;fontFamily=Comic Relief;" parent="HmvSd15M-8F5yOJkMYdE-36" vertex="1">
          <mxGeometry width="120" height="30" as="geometry" />
        </mxCell>
        <mxCell id="HmvSd15M-8F5yOJkMYdE-32" value="" style="rounded=1;whiteSpace=wrap;html=1;sketch=1;fontFamily=Comic Relief;fillStyle=solid;fillColor=#B3B3B3;" parent="HmvSd15M-8F5yOJkMYdE-36" vertex="1">
          <mxGeometry x="10" y="10" width="10" height="10" as="geometry" />
        </mxCell>
        <mxCell id="HmvSd15M-8F5yOJkMYdE-37" value="" style="group;rounded=1;" parent="1" vertex="1" connectable="0">
          <mxGeometry x="310" y="590" width="120" height="30" as="geometry" />
        </mxCell>
        <mxCell id="HmvSd15M-8F5yOJkMYdE-18" value="Миньон" style="rounded=1;whiteSpace=wrap;html=1;sketch=1;fontFamily=Comic Relief;" parent="HmvSd15M-8F5yOJkMYdE-37" vertex="1">
          <mxGeometry width="120" height="30" as="geometry" />
        </mxCell>
        <mxCell id="HmvSd15M-8F5yOJkMYdE-33" value="" style="rounded=1;whiteSpace=wrap;html=1;sketch=1;fontFamily=Comic Relief;fillStyle=solid;fillColor=#EA6B66;" parent="HmvSd15M-8F5yOJkMYdE-37" vertex="1">
          <mxGeometry x="10" y="12" width="10" height="10" as="geometry" />
        </mxCell>
        <mxCell id="eFoZafhcH6ko-tXm_hz1-100" style="edgeStyle=orthogonalEdgeStyle;curved=1;rounded=0;sketch=1;orthogonalLoop=1;jettySize=auto;html=1;entryX=0;entryY=0.5;entryDx=0;entryDy=0;fontFamily=Comic Relief;" parent="1" source="HmvSd15M-8F5yOJkMYdE-21" target="eFoZafhcH6ko-tXm_hz1-3" edge="1">
          <mxGeometry relative="1" as="geometry" />
        </mxCell>
        <mxCell id="eFoZafhcH6ko-tXm_hz1-107" style="edgeStyle=orthogonalEdgeStyle;curved=1;rounded=0;sketch=1;orthogonalLoop=1;jettySize=auto;html=1;entryX=0.347;entryY=1.011;entryDx=0;entryDy=0;entryPerimeter=0;fontFamily=Comic Relief;" parent="1" source="eFoZafhcH6ko-tXm_hz1-30" target="eFoZafhcH6ko-tXm_hz1-3" edge="1">
          <mxGeometry relative="1" as="geometry" />
        </mxCell>
        <mxCell id="eFoZafhcH6ko-tXm_hz1-108" style="edgeStyle=orthogonalEdgeStyle;curved=1;rounded=0;sketch=1;orthogonalLoop=1;jettySize=auto;html=1;fontFamily=Comic Relief;" parent="1" source="eFoZafhcH6ko-tXm_hz1-33" edge="1">
          <mxGeometry relative="1" as="geometry">
            <mxPoint x="730" y="489.9999999999999" as="targetPoint" />
          </mxGeometry>
        </mxCell>
        <mxCell id="eFoZafhcH6ko-tXm_hz1-109" style="edgeStyle=orthogonalEdgeStyle;curved=1;rounded=0;sketch=1;orthogonalLoop=1;jettySize=auto;html=1;fontFamily=Comic Relief;entryX=0.144;entryY=0.994;entryDx=0;entryDy=0;entryPerimeter=0;" parent="1" source="eFoZafhcH6ko-tXm_hz1-36" target="eFoZafhcH6ko-tXm_hz1-3" edge="1">
          <mxGeometry relative="1" as="geometry">
            <mxPoint x="630" y="419.9999999999999" as="targetPoint" />
            <Array as="points">
              <mxPoint x="540" y="655" />
              <mxPoint x="540" y="540" />
              <mxPoint x="624" y="540" />
            </Array>
          </mxGeometry>
        </mxCell>
        <mxCell id="eFoZafhcH6ko-tXm_hz1-110" style="edgeStyle=orthogonalEdgeStyle;curved=1;rounded=0;sketch=1;orthogonalLoop=1;jettySize=auto;html=1;entryX=0.903;entryY=1.003;entryDx=0;entryDy=0;entryPerimeter=0;fontFamily=Comic Relief;" parent="1" source="eFoZafhcH6ko-tXm_hz1-39" target="eFoZafhcH6ko-tXm_hz1-3" edge="1">
          <mxGeometry relative="1" as="geometry">
            <Array as="points">
              <mxPoint x="840" y="655" />
              <mxPoint x="840" y="530" />
              <mxPoint x="749" y="530" />
            </Array>
          </mxGeometry>
        </mxCell>
        <mxCell id="xqTRIyc8lM_XPfrtViuI-1" value="" style="rounded=1;whiteSpace=wrap;html=1;sketch=1;fontFamily=Comic Relief;fillStyle=solid;fillColor=#67AB9F;" parent="1" vertex="1">
          <mxGeometry x="1000" y="394" width="10" height="10" as="geometry" />
        </mxCell>
        <mxCell id="xqTRIyc8lM_XPfrtViuI-2" style="edgeStyle=orthogonalEdgeStyle;rounded=0;orthogonalLoop=1;jettySize=auto;html=1;sketch=1;curved=1;" parent="1" source="HmvSd15M-8F5yOJkMYdE-6" edge="1">
          <mxGeometry relative="1" as="geometry">
            <mxPoint x="470" y="371" as="targetPoint" />
            <Array as="points">
              <mxPoint x="470" y="524" />
            </Array>
          </mxGeometry>
        </mxCell>
        <mxCell id="xqTRIyc8lM_XPfrtViuI-3" style="edgeStyle=orthogonalEdgeStyle;curved=1;rounded=0;sketch=1;orthogonalLoop=1;jettySize=auto;html=1;entryX=0.407;entryY=1.073;entryDx=0;entryDy=0;entryPerimeter=0;" parent="1" source="HmvSd15M-8F5yOJkMYdE-18" target="HmvSd15M-8F5yOJkMYdE-21" edge="1">
          <mxGeometry relative="1" as="geometry">
            <Array as="points">
              <mxPoint x="300" y="605" />
              <mxPoint x="300" y="491" />
              <mxPoint x="410" y="491" />
              <mxPoint x="410" y="501" />
              <mxPoint x="459" y="501" />
            </Array>
          </mxGeometry>
        </mxCell>
        <mxCell id="eFoZafhcH6ko-tXm_hz1-80" value="" style="group" parent="1" vertex="1" connectable="0">
          <mxGeometry x="430" y="411" width="80" height="80" as="geometry" />
        </mxCell>
        <mxCell id="eFoZafhcH6ko-tXm_hz1-81" value="" style="rounded=0;whiteSpace=wrap;html=1;sketch=1;fontFamily=Comic Relief;fillStyle=solid;strokeColor=none;" parent="eFoZafhcH6ko-tXm_hz1-80" vertex="1">
          <mxGeometry width="80" height="80" as="geometry" />
        </mxCell>
        <mxCell id="eFoZafhcH6ko-tXm_hz1-82" value="" style="rounded=0;whiteSpace=wrap;html=1;sketch=1;fontFamily=Comic Relief;fillStyle=hachure;fillColor=#EA6B66;" parent="eFoZafhcH6ko-tXm_hz1-80" vertex="1">
          <mxGeometry width="20" height="20" as="geometry" />
        </mxCell>
        <mxCell id="eFoZafhcH6ko-tXm_hz1-83" value="" style="rounded=0;whiteSpace=wrap;html=1;sketch=1;fontFamily=Comic Relief;fillStyle=hachure;fillColor=#EA6B66;" parent="eFoZafhcH6ko-tXm_hz1-80" vertex="1">
          <mxGeometry x="20" width="40" height="20" as="geometry" />
        </mxCell>
        <mxCell id="eFoZafhcH6ko-tXm_hz1-84" value="" style="rounded=0;whiteSpace=wrap;html=1;sketch=1;fontFamily=Comic Relief;fillStyle=hachure;fillColor=#EA6B66;" parent="eFoZafhcH6ko-tXm_hz1-80" vertex="1">
          <mxGeometry y="20" width="40" height="20" as="geometry" />
        </mxCell>
        <mxCell id="eFoZafhcH6ko-tXm_hz1-85" value="" style="rounded=0;whiteSpace=wrap;html=1;sketch=1;fontFamily=Comic Relief;fillStyle=hachure;fillColor=#EA6B66;" parent="eFoZafhcH6ko-tXm_hz1-80" vertex="1">
          <mxGeometry y="40" width="20" height="20" as="geometry" />
        </mxCell>
        <mxCell id="eFoZafhcH6ko-tXm_hz1-86" value="" style="rounded=0;whiteSpace=wrap;html=1;sketch=1;fontFamily=Comic Relief;fillStyle=hachure;fillColor=#EA6B66;" parent="eFoZafhcH6ko-tXm_hz1-80" vertex="1">
          <mxGeometry x="20" y="40" width="40" height="20" as="geometry" />
        </mxCell>
        <mxCell id="eFoZafhcH6ko-tXm_hz1-87" value="" style="rounded=0;whiteSpace=wrap;html=1;sketch=1;fontFamily=Comic Relief;fillStyle=hachure;fillColor=#EA6B66;" parent="eFoZafhcH6ko-tXm_hz1-80" vertex="1">
          <mxGeometry x="40" y="20" width="40" height="20" as="geometry" />
        </mxCell>
        <mxCell id="eFoZafhcH6ko-tXm_hz1-88" value="" style="rounded=0;whiteSpace=wrap;html=1;sketch=1;fontFamily=Comic Relief;fillStyle=hachure;fillColor=#EA6B66;" parent="eFoZafhcH6ko-tXm_hz1-80" vertex="1">
          <mxGeometry y="60" width="40" height="20" as="geometry" />
        </mxCell>
        <mxCell id="eFoZafhcH6ko-tXm_hz1-89" value="" style="rounded=0;whiteSpace=wrap;html=1;sketch=1;fontFamily=Comic Relief;fillStyle=hachure;fillColor=#EA6B66;" parent="eFoZafhcH6ko-tXm_hz1-80" vertex="1">
          <mxGeometry x="40" y="60" width="40" height="20" as="geometry" />
        </mxCell>
        <mxCell id="eFoZafhcH6ko-tXm_hz1-90" value="" style="rounded=0;whiteSpace=wrap;html=1;sketch=1;fontFamily=Comic Relief;fillStyle=hachure;fillColor=#EA6B66;" parent="eFoZafhcH6ko-tXm_hz1-80" vertex="1">
          <mxGeometry x="60" width="20" height="20" as="geometry" />
        </mxCell>
        <mxCell id="eFoZafhcH6ko-tXm_hz1-91" value="" style="rounded=0;whiteSpace=wrap;html=1;sketch=1;fontFamily=Comic Relief;fillStyle=hachure;fillColor=#EA6B66;" parent="eFoZafhcH6ko-tXm_hz1-80" vertex="1">
          <mxGeometry x="60" y="40" width="20" height="20" as="geometry" />
        </mxCell>
        <mxCell id="eFoZafhcH6ko-tXm_hz1-92" value="NAT" style="rounded=0;whiteSpace=wrap;html=1;sketch=1;fontFamily=Comic Relief;fillStyle=solid;fillColor=#f9f7ed;strokeColor=#36393d;" parent="eFoZafhcH6ko-tXm_hz1-80" vertex="1">
          <mxGeometry x="15" y="25" width="50" height="30" as="geometry" />
        </mxCell>
        <mxCell id="xqTRIyc8lM_XPfrtViuI-11" style="edgeStyle=orthogonalEdgeStyle;curved=1;rounded=0;sketch=1;orthogonalLoop=1;jettySize=auto;html=1;entryX=0.25;entryY=1;entryDx=0;entryDy=0;" parent="1" source="eFoZafhcH6ko-tXm_hz1-12" target="HmvSd15M-8F5yOJkMYdE-20" edge="1">
          <mxGeometry relative="1" as="geometry" />
        </mxCell>
        <mxCell id="xqTRIyc8lM_XPfrtViuI-12" style="edgeStyle=orthogonalEdgeStyle;curved=1;rounded=0;sketch=1;orthogonalLoop=1;jettySize=auto;html=1;entryX=0.609;entryY=0.997;entryDx=0;entryDy=0;entryPerimeter=0;" parent="1" source="eFoZafhcH6ko-tXm_hz1-9" target="HmvSd15M-8F5yOJkMYdE-20" edge="1">
          <mxGeometry relative="1" as="geometry" />
        </mxCell>
        <mxCell id="xqTRIyc8lM_XPfrtViuI-13" style="edgeStyle=orthogonalEdgeStyle;curved=1;rounded=0;sketch=1;orthogonalLoop=1;jettySize=auto;html=1;entryX=0.716;entryY=1.044;entryDx=0;entryDy=0;entryPerimeter=0;" parent="1" source="eFoZafhcH6ko-tXm_hz1-15" target="HmvSd15M-8F5yOJkMYdE-20" edge="1">
          <mxGeometry relative="1" as="geometry">
            <Array as="points">
              <mxPoint x="1150" y="559" />
              <mxPoint x="1150" y="479" />
              <mxPoint x="1076" y="479" />
            </Array>
          </mxGeometry>
        </mxCell>
        <mxCell id="xqTRIyc8lM_XPfrtViuI-14" style="edgeStyle=orthogonalEdgeStyle;curved=1;rounded=0;sketch=1;orthogonalLoop=1;jettySize=auto;html=1;entryX=0.097;entryY=1.044;entryDx=0;entryDy=0;entryPerimeter=0;" parent="1" source="eFoZafhcH6ko-tXm_hz1-6" target="HmvSd15M-8F5yOJkMYdE-20" edge="1">
          <mxGeometry relative="1" as="geometry">
            <Array as="points">
              <mxPoint x="860" y="556" />
              <mxPoint x="860" y="451" />
              <mxPoint x="1002" y="451" />
            </Array>
          </mxGeometry>
        </mxCell>
        <mxCell id="xqTRIyc8lM_XPfrtViuI-15" style="edgeStyle=orthogonalEdgeStyle;curved=1;rounded=0;sketch=1;orthogonalLoop=1;jettySize=auto;html=1;entryX=1;entryY=0.5;entryDx=0;entryDy=0;" parent="1" source="eFoZafhcH6ko-tXm_hz1-18" target="HmvSd15M-8F5yOJkMYdE-20" edge="1">
          <mxGeometry relative="1" as="geometry">
            <Array as="points">
              <mxPoint x="1160" y="600" />
              <mxPoint x="1160" y="399" />
            </Array>
          </mxGeometry>
        </mxCell>
      </root>
    </mxGraphModel>
  </diagram>
</mxfile>
